<svg width="18" height="24" viewBox="0 0 18 24" fill="none" xmlns="http://www.w3.org/2000/svg">
<path d="M14.541 11.3737C15.8408 10.7093 16.668 9.52725 16.476 7.563C16.2248 4.87425 14.0168 3.9735 11.0925 3.72225V0H8.81775V3.61875C8.22675 3.61875 7.6215 3.63375 7.0155 3.648V0H4.74075V3.72225C3.9045 3.74775 2.93025 3.735 0.177002 3.72225V6.14475C1.9725 6.11325 2.91525 5.99775 3.13125 7.149V17.3407C2.994 18.2542 2.26275 18.123 0.635252 18.0945L0.177752 20.7975C4.32525 20.7975 4.74225 20.8125 4.74225 20.8125V24H7.017V20.8568C7.63725 20.8717 8.2425 20.8717 8.81925 20.8717V24.0007H11.094V20.8132C14.9048 20.6062 17.4525 19.6462 17.7922 16.0568C18.0578 13.1768 16.6995 11.8913 14.5425 11.3745L14.541 11.3737ZM7.05975 6.3075C8.3445 6.3075 12.3623 5.9085 12.3623 8.58225C12.3623 11.1375 8.3445 10.842 7.05975 10.842V6.3075ZM7.05975 18.1087V13.116C8.59575 13.116 13.2998 12.6877 13.2998 15.612C13.2998 18.4335 8.59575 18.108 7.05975 18.108V18.1087Z" fill="#676FE5"/>
</svg>
