<svg width="18" height="18" viewBox="0 0 18 18" fill="none" xmlns="http://www.w3.org/2000/svg">
<path d="M9.00978 6.62891C8.4258 6.62891 7.87892 6.85547 7.46486 7.26953C7.05275 7.68359 6.82423 8.23047 6.82423 8.81445C6.82423 9.39844 7.05275 9.94531 7.46486 10.3594C7.87892 10.7715 8.4258 11 9.00978 11C9.59376 11 10.1406 10.7715 10.5547 10.3594C10.9668 9.94531 11.1953 9.39844 11.1953 8.81445C11.1953 8.23047 10.9668 7.68359 10.5547 7.26953C10.3525 7.06574 10.1117 6.90416 9.84653 6.79418C9.58132 6.68421 9.29689 6.62803 9.00978 6.62891ZM17.0625 11.2285L15.7852 10.1367C15.8457 9.76562 15.877 9.38672 15.877 9.00977C15.877 8.63281 15.8457 8.25195 15.7852 7.88281L17.0625 6.79102C17.159 6.70841 17.2281 6.59839 17.2605 6.47558C17.293 6.35278 17.2873 6.223 17.2442 6.10352L17.2266 6.05273C16.875 5.06971 16.3483 4.15851 15.6719 3.36328L15.6367 3.32227C15.5546 3.22569 15.4451 3.15626 15.3227 3.12314C15.2004 3.09002 15.0708 3.09475 14.9512 3.13672L13.3653 3.70117C12.7793 3.2207 12.127 2.8418 11.4199 2.57812L11.1133 0.919922C11.0902 0.795004 11.0296 0.680083 10.9396 0.590425C10.8496 0.500768 10.7344 0.440619 10.6094 0.417969L10.5567 0.408203C9.54103 0.224609 8.47072 0.224609 7.45509 0.408203L7.40236 0.417969C7.27735 0.440619 7.16219 0.500768 7.07219 0.590425C6.98218 0.680083 6.92159 0.795004 6.89845 0.919922L6.58986 2.58594C5.88952 2.85171 5.23711 3.2297 4.65822 3.70508L3.06056 3.13672C2.94096 3.09442 2.81132 3.08951 2.68887 3.12266C2.56642 3.1558 2.45695 3.22542 2.37501 3.32227L2.33985 3.36328C1.66464 4.15936 1.13804 5.07033 0.785166 6.05273L0.767588 6.10352C0.679697 6.34766 0.751963 6.62109 0.949228 6.79102L2.2422 7.89453C2.18165 8.26172 2.15235 8.63672 2.15235 9.00781C2.15235 9.38281 2.18165 9.75781 2.2422 10.1211L0.953135 11.2246C0.856642 11.3072 0.787581 11.4172 0.755134 11.54C0.722688 11.6628 0.728394 11.7926 0.771494 11.9121L0.789072 11.9629C1.14259 12.9453 1.66407 13.8535 2.34376 14.6523L2.37892 14.6934C2.46105 14.7899 2.57053 14.8594 2.69291 14.8925C2.81528 14.9256 2.94483 14.9209 3.06446 14.8789L4.66212 14.3105C5.24415 14.7891 5.89259 15.168 6.59376 15.4297L6.90236 17.0957C6.92549 17.2206 6.98609 17.3355 7.07609 17.4252C7.1661 17.5149 7.28126 17.575 7.40626 17.5977L7.459 17.6074C8.48461 17.792 9.53495 17.792 10.5606 17.6074L10.6133 17.5977C10.7383 17.575 10.8535 17.5149 10.9435 17.4252C11.0335 17.3355 11.0941 17.2206 11.1172 17.0957L11.4238 15.4375C12.1309 15.1719 12.7832 14.7949 13.3692 14.3145L14.9551 14.8789C15.0747 14.9212 15.2043 14.9261 15.3268 14.893C15.4492 14.8598 15.5587 14.7902 15.6406 14.6934L15.6758 14.6523C16.3555 13.8496 16.877 12.9453 17.2305 11.9629L17.2481 11.9121C17.3321 11.6699 17.2598 11.3984 17.0625 11.2285ZM9.00978 12.248C7.11329 12.248 5.57618 10.7109 5.57618 8.81445C5.57618 6.91797 7.11329 5.38086 9.00978 5.38086C10.9063 5.38086 12.4434 6.91797 12.4434 8.81445C12.4434 10.7109 10.9063 12.248 9.00978 12.248Z" fill="#CCCCCC"/>
</svg>
